# xmcd
#
# Track frame offsets: 
#        150
#        9261
#        19229
#        30886
#        39167
#        49433
#        58107
#        70874
#        79570
#        91138
#        103486
#        117673
#        130783
#        138996
#        152654
#        155499
#        163870
#        173703
#        188136
#        199358
#        208762
#        221620
#        232403
#        245781
#        257540
#        268812
#        280595
#
# Disc length: 3830 seconds
#
# Revision: 0
# Processed by: cddbd v1.5.2PL0 Copyright (c) Steve Scherf et al.
# Submitted via: ExactAudioCopyFreeDBPlugin 1.0
#
DISCID=880ef41b
DTITLE=John Hartford - Backroads, Rivers and Memories: The Rare and Unrele
DTITLE=ased John Hartford
DYEAR=2019
DGENRE=Bluegrass
TTITLE0=Towboat River
TTITLE1=Tall Tall Grass
TTITLE2=Front Porch
TTITLE3=Eve of My Multiplication
TTITLE4=California Earthquake
TTITLE5=Left Handed Woman
TTITLE6=George
TTITLE7=Run
TTITLE8=This Eve of Parting
TTITLE9=Self Made Man
TTITLE10=Minus the Woman
TTITLE11=Like Unto a Mockingbird
TTITLE12=Grownup Man
TTITLE13=Gentle On My Mind
TTITLE14=Steam Powered Aereo Plain instrumental excerpt
TTITLE15=Station Break
TTITLE16=Ice Cold Love
TTITLE17=Matthew 24
TTITLE18=Greensleeves
TTITLE19=Corrina
TTITLE20=Greenback Dollar 
TTITLE21=Jesus Loves Everybody  
TTITLE22=I Forgot to Forget
TTITLE23=The Way Is Narrow 
TTITLE24=Short Life of Trouble 
TTITLE25=That Great Day Is Coming 
TTITLE26=When I Feel the Hand of My Saviour 
EXTD=
EXTT0=
EXTT1=
EXTT2=
EXTT3=
EXTT4=
EXTT5=
EXTT6=
EXTT7=
EXTT8=
EXTT9=
EXTT10=
EXTT11=
EXTT12=
EXTT13=
EXTT14=
EXTT15=
EXTT16=
EXTT17=
EXTT18=
EXTT19=
EXTT20=
EXTT21=
EXTT22=
EXTT23=
EXTT24=
EXTT25=
EXTT26=
PLAYORDER=
